<?xml version="1.0" encoding="utf-8"?>
<!-- Generator: Adobe Illustrator 26.0.3, SVG Export Plug-In . SVG Version: 6.00 Build 0)  -->
<svg version="1.1" id="Calque_1" xmlns="http://www.w3.org/2000/svg" xmlns:xlink="http://www.w3.org/1999/xlink" x="0px" y="0px"
	 viewBox="0 0 720 720" style="enable-background:new 0 0 720 720;" xml:space="preserve">
<style type="text/css">
	.st0{fill:none;}
	.st1{clip-path:url(#SVGID_00000078008267536022761420000007903294685744786849_);}
	
		.st2{opacity:0.3;fill:#440154;fill-opacity:0.8;stroke:#FFFFFF;stroke-width:1.07;stroke-linecap:round;stroke-linejoin:round;stroke-miterlimit:10;enable-background:new    ;}
	
		.st3{opacity:0.8;fill:#414487;fill-opacity:0.8;stroke:#FFFFFF;stroke-width:1.07;stroke-linecap:round;stroke-linejoin:round;stroke-miterlimit:10;}
	
		.st4{opacity:0.3;fill:#2A788E;fill-opacity:0.8;stroke:#FFFFFF;stroke-width:1.07;stroke-linecap:round;stroke-linejoin:round;stroke-miterlimit:10;enable-background:new    ;}
	
		.st5{opacity:0.3;fill:#22A884;fill-opacity:0.8;stroke:#FFFFFF;stroke-width:1.07;stroke-linecap:round;stroke-linejoin:round;stroke-miterlimit:10;enable-background:new    ;}
	
		.st6{opacity:0.3;fill:#7AD151;fill-opacity:0.8;stroke:#FFFFFF;stroke-width:1.07;stroke-linecap:round;stroke-linejoin:round;stroke-miterlimit:10;enable-background:new    ;}
	
		.st7{opacity:0.3;fill:#FDE725;fill-opacity:0.8;stroke:#FFFFFF;stroke-width:1.07;stroke-linecap:round;stroke-linejoin:round;stroke-miterlimit:10;enable-background:new    ;}
	.st8{opacity:0.3;enable-background:new    ;}
	.st9{font-family:'ArialMT';}
	.st10{font-size:34.14px;}
</style>
<rect y="0" class="st0" width="720" height="720"/>
<g>
	<g>
		<g>
			<defs>
				<rect id="SVGID_1_" y="0" width="720" height="720"/>
			</defs>
			<clipPath id="SVGID_00000019647835755133986260000017531908646594727095_">
				<use xlink:href="#SVGID_1_"  style="overflow:visible;"/>
			</clipPath>
			<g style="clip-path:url(#SVGID_00000019647835755133986260000017531908646594727095_);">
				<polygon class="st2" points="360,62.5 365.3,62.5 370.6,62.7 375.8,62.9 381.1,63.2 386.4,63.6 391.6,64.2 396.9,64.8 
					402.1,65.5 407.3,66.3 412.5,67.1 417.7,68.1 422.9,69.2 428,70.4 433.2,71.6 438.3,73 443.4,74.4 448.4,75.9 453.4,77.5 
					458.4,79.2 463.4,81 468.4,82.9 473.2,84.9 478.1,86.9 482.9,89.1 487.7,91.3 492.5,93.6 497.2,96 501.9,98.5 506.5,101 
					511,103.7 515.6,106.4 520,109.2 524.5,112.1 528.8,115 533.2,118.1 537.4,121.2 541.6,124.4 545.8,127.6 549.9,131 
					553.9,134.4 557.9,137.8 561.8,141.4 565.7,145 569.4,148.7 573.2,152.4 576.8,156.3 580.4,160.1 583.9,164.1 587.3,168.1 
					590.7,172.1 594,176.3 597.2,180.5 600.4,184.7 603.5,189 606.5,193.3 609.4,197.7 612.2,202.2 615,206.7 617.7,211.2 
					437.3,315.4 436.5,314 435.7,312.7 434.8,311.3 433.9,310 433,308.7 432.1,307.4 431.2,306.1 430.2,304.9 429.2,303.6 
					428.2,302.4 427.2,301.2 426.1,300 425,298.9 424,297.7 422.8,296.6 421.7,295.5 420.5,294.4 419.4,293.3 418.2,292.3 
					417,291.3 415.7,290.3 414.5,289.3 413.2,288.3 412,287.4 410.6,286.5 409.3,285.6 408,284.8 406.7,283.9 405.3,283.1 
					403.9,282.3 402.5,281.5 401.2,280.8 399.7,280.1 398.3,279.4 396.9,278.7 395.4,278.1 394,277.5 392.5,276.9 391,276.3 
					389.5,275.8 388,275.3 386.5,274.8 385,274.3 383.5,273.9 382,273.5 380.4,273.1 378.9,272.8 377.3,272.4 375.8,272.1 
					374.2,271.9 372.6,271.6 371.1,271.4 369.5,271.2 367.9,271.1 366.3,271 364.8,270.9 363.2,270.8 361.6,270.8 360,270.7 				"/>
				<polygon class="st3" points="647.4,211.2 650,215.8 652.5,220.5 655,225.2 657.3,229.9 659.6,234.7 661.8,239.5 663.9,244.3 
					665.9,249.2 667.8,254.1 669.6,259.1 671.4,264 673,269.1 674.6,274.1 676.1,279.2 677.5,284.3 678.8,289.4 680,294.5 
					681.1,299.7 682.1,304.9 683,310.1 683.9,315.3 684.6,320.5 685.3,325.7 685.9,331 686.3,336.3 686.7,341.5 687,346.8 
					687.2,352.1 687.3,357.4 687.3,362.6 687.2,367.9 687,373.2 686.7,378.5 686.3,383.7 685.9,389 685.3,394.2 684.6,399.5 
					683.9,404.7 683,409.9 682.1,415.1 681.1,420.3 680,425.5 678.8,430.6 677.5,435.7 676.1,440.8 674.6,445.9 673,450.9 
					671.4,455.9 669.6,460.9 667.8,465.9 665.9,470.8 663.9,475.7 661.8,480.5 659.6,485.3 657.3,490.1 655,494.8 652.5,499.5 
					650,504.2 647.4,508.8 467,404.6 467.8,403.2 468.6,401.9 469.3,400.4 470,399 470.7,397.6 471.4,396.2 472,394.7 472.6,393.2 
					473.2,391.8 473.7,390.3 474.2,388.8 474.7,387.3 475.2,385.8 475.6,384.2 476.1,382.7 476.5,381.2 476.8,379.6 477.2,378.1 
					477.5,376.5 477.7,375 478,373.4 478.2,371.8 478.4,370.3 478.6,368.7 478.7,367.1 478.8,365.5 478.9,364 479,362.4 479,360.8 
					479,359.2 479,357.6 478.9,356 478.8,354.5 478.7,352.9 478.6,351.3 478.4,349.7 478.2,348.1 478,346.6 477.7,345 477.5,343.5 
					477.2,341.9 476.8,340.4 476.5,338.8 476.1,337.3 475.6,335.7 475.2,334.2 474.7,332.7 474.2,331.2 473.7,329.7 473.2,328.2 
					472.6,326.8 472,325.3 471.4,323.8 470.7,322.4 470,321 469.3,319.5 468.6,318.1 467.8,316.7 467,315.4 				"/>
				<polygon class="st4" points="617.7,508.8 615,513.2 612.3,517.7 609.5,522 606.7,526.4 603.7,530.6 600.7,534.9 597.6,539 
					594.5,543.2 591.2,547.2 587.9,551.2 584.5,555.2 581.1,559.1 577.6,562.9 574,566.7 570.4,570.4 566.7,574 562.9,577.6 
					559.1,581.1 555.2,584.5 551.2,587.9 547.2,591.2 543.2,594.4 539,597.6 534.9,600.7 530.7,603.7 526.4,606.7 522,609.5 
					517.7,612.3 513.2,615 508.8,617.7 504.2,620.2 499.7,622.7 495.1,625.1 490.4,627.4 485.7,629.6 481,631.8 476.2,633.9 
					471.5,635.9 466.6,637.8 461.8,639.6 456.9,641.3 451.9,643 447,644.5 442,646 437,647.4 432,648.7 426.9,649.9 421.9,651 
					416.8,652 411.7,653 406.5,653.9 401.4,654.6 396.3,655.3 391.1,655.9 385.9,656.4 380.8,656.8 375.6,657.1 370.4,657.3 
					365.2,657.5 360,657.5 360,449.3 361.6,449.2 363.1,449.2 364.7,449.1 366.2,449 367.8,448.9 369.3,448.8 370.9,448.6 
					372.4,448.4 374,448.2 375.5,447.9 377,447.6 378.6,447.3 380.1,447 381.6,446.6 383.1,446.2 384.6,445.8 386.1,445.4 
					387.6,444.9 389.1,444.4 390.5,443.9 392,443.3 393.4,442.8 394.9,442.2 396.3,441.5 397.7,440.9 399.1,440.2 400.5,439.5 
					401.9,438.8 403.3,438.1 404.6,437.3 406,436.5 407.3,435.7 408.6,434.9 409.9,434 411.2,433.1 412.5,432.2 413.7,431.3 
					415,430.3 416.2,429.4 417.4,428.4 418.6,427.4 419.7,426.3 420.9,425.3 422,424.2 423.1,423.1 424.2,422 425.3,420.9 
					426.3,419.7 427.4,418.6 428.4,417.4 429.4,416.2 430.3,414.9 431.3,413.7 432.2,412.5 433.1,411.2 434,409.9 434.9,408.6 
					435.7,407.3 436.5,406 437.3,404.6 				"/>
				<polygon class="st5" points="360,657.5 354.7,657.5 349.4,657.3 344.2,657.1 338.9,656.8 333.6,656.3 328.4,655.8 323.1,655.2 
					317.9,654.5 312.7,653.7 307.5,652.8 302.3,651.9 297.1,650.8 292,649.6 286.8,648.4 281.7,647 276.6,645.6 271.6,644.1 
					266.6,642.5 261.6,640.8 256.6,639 251.6,637.1 246.8,635.1 241.9,633.1 237.1,630.9 232.3,628.7 227.5,626.4 222.8,624 
					218.1,621.5 213.5,619 209,616.3 204.4,613.6 200,610.8 195.5,607.9 191.2,605 186.8,601.9 182.6,598.8 178.4,595.6 
					174.2,592.4 170.1,589 166.1,585.6 162.1,582.2 158.2,578.6 154.3,575 150.6,571.3 146.8,567.6 143.2,563.7 139.6,559.9 
					136.1,555.9 132.6,551.9 129.3,547.8 126,543.7 122.8,539.5 119.6,535.3 116.5,531 113.5,526.7 110.6,522.3 107.8,517.8 
					105,513.3 102.3,508.8 282.7,404.6 283.5,406 284.3,407.3 285.2,408.7 286.1,410 287,411.3 287.9,412.6 288.8,413.9 
					289.8,415.1 290.8,416.4 291.8,417.6 292.8,418.8 293.9,420 295,421.1 296,422.3 297.2,423.4 298.3,424.5 299.5,425.6 
					300.6,426.6 301.8,427.7 303,428.7 304.3,429.7 305.5,430.7 306.8,431.6 308,432.6 309.4,433.5 310.7,434.4 312,435.2 
					313.3,436.1 314.7,436.9 316.1,437.7 317.5,438.5 318.8,439.2 320.3,439.9 321.7,440.6 323.1,441.3 324.6,441.9 326,442.5 
					327.5,443.1 329,443.7 330.5,444.2 332,444.7 333.5,445.2 335,445.7 336.5,446.1 338,446.5 339.6,446.9 341.1,447.2 
					342.7,447.6 344.2,447.8 345.8,448.1 347.4,448.4 348.9,448.6 350.5,448.7 352.1,448.9 353.7,449 355.2,449.1 356.8,449.2 
					358.4,449.2 360,449.3 				"/>
				<polygon class="st6" points="102.3,508.8 99.8,504.2 97.3,499.7 94.9,495.1 92.6,490.4 90.3,485.7 88.2,481 86.1,476.2 
					84.1,471.4 82.2,466.6 80.4,461.8 78.7,456.9 77,451.9 75.5,447 74,442 72.6,437 71.3,432 70.1,426.9 69,421.9 67.9,416.8 
					67,411.7 66.1,406.5 65.4,401.4 64.7,396.3 64.1,391.1 63.6,385.9 63.2,380.7 62.9,375.6 62.7,370.4 62.5,365.2 62.5,360 
					62.5,354.8 62.7,349.6 62.9,344.4 63.2,339.2 63.6,334.1 64.1,328.9 64.7,323.7 65.4,318.6 66.1,313.5 67,308.3 67.9,303.2 
					69,298.1 70.1,293.1 71.3,288 72.6,283 74,278 75.5,273 77,268.1 78.7,263.1 80.4,258.2 82.2,253.4 84.1,248.5 86.1,243.7 
					88.2,239 90.3,234.3 92.6,229.6 94.9,224.9 97.3,220.3 99.8,215.8 102.3,211.2 282.7,315.4 281.9,316.7 281.2,318.1 
					280.5,319.5 279.8,320.9 279.1,322.3 278.5,323.7 277.8,325.1 277.2,326.6 276.7,328 276.1,329.5 275.6,330.9 275.1,332.4 
					274.6,333.9 274.2,335.4 273.8,336.9 273.4,338.4 273,339.9 272.7,341.4 272.4,343 272.1,344.5 271.8,346 271.6,347.6 
					271.4,349.1 271.2,350.7 271.1,352.2 271,353.8 270.9,355.3 270.8,356.9 270.8,358.4 270.7,360 270.8,361.6 270.8,363.1 
					270.9,364.7 271,366.2 271.1,367.8 271.2,369.3 271.4,370.9 271.6,372.4 271.8,374 272.1,375.5 272.4,377 272.7,378.6 
					273,380.1 273.4,381.6 273.8,383.1 274.2,384.6 274.6,386.1 275.1,387.6 275.6,389.1 276.1,390.5 276.7,392 277.2,393.4 
					277.8,394.9 278.5,396.3 279.1,397.7 279.8,399.1 280.5,400.5 281.2,401.9 281.9,403.3 282.7,404.6 				"/>
				<polygon class="st7" points="102.3,211.2 105,206.7 107.8,202.2 110.6,197.7 113.5,193.3 116.5,189 119.6,184.7 122.8,180.5 
					126,176.3 129.3,172.1 132.6,168.1 136.1,164.1 139.6,160.1 143.2,156.3 146.8,152.4 150.6,148.7 154.3,145 158.2,141.4 
					162.1,137.8 166.1,134.4 170.1,131 174.2,127.6 178.4,124.4 182.6,121.2 186.8,118.1 191.2,115 195.5,112.1 200,109.2 
					204.4,106.4 209,103.7 213.5,101 218.1,98.5 222.8,96 227.5,93.6 232.3,91.3 237.1,89.1 241.9,86.9 246.8,84.9 251.6,82.9 
					256.6,81 261.6,79.2 266.6,77.5 271.6,75.9 276.6,74.4 281.7,73 286.8,71.6 292,70.4 297.1,69.2 302.3,68.1 307.5,67.1 
					312.7,66.3 317.9,65.5 323.1,64.8 328.4,64.2 333.6,63.6 338.9,63.2 344.2,62.9 349.4,62.7 354.7,62.5 360,62.5 360,270.7 
					358.4,270.8 356.8,270.8 355.2,270.9 353.7,271 352.1,271.1 350.5,271.2 348.9,271.4 347.4,271.6 345.8,271.9 344.2,272.1 
					342.7,272.4 341.1,272.8 339.6,273.1 338,273.5 336.5,273.9 335,274.3 333.5,274.8 332,275.3 330.5,275.8 329,276.3 
					327.5,276.9 326,277.5 324.6,278.1 323.1,278.7 321.7,279.4 320.3,280.1 318.8,280.8 317.5,281.5 316.1,282.3 314.7,283.1 
					313.3,283.9 312,284.8 310.7,285.6 309.4,286.5 308,287.4 306.8,288.3 305.5,289.3 304.3,290.3 303,291.3 301.8,292.3 
					300.6,293.3 299.5,294.4 298.3,295.5 297.2,296.6 296,297.7 295,298.9 293.9,300 292.8,301.2 291.8,302.4 290.8,303.6 
					289.8,304.9 288.8,306.1 287.9,307.4 287,308.7 286.1,310 285.2,311.3 284.3,312.7 283.5,314 282.7,315.4 				"/>
				<rect x="388.4" y="175.4" class="st0" width="136.6" height="40.4"/>
				<text transform="matrix(1 0 0 1 388.3848 204.7394)" class="st8 st9 st10">Cluster 1</text>
				<rect x="514.8" y="342.9" class="st0" width="136.6" height="40.4"/>
				<text transform="matrix(1 0 0 1 514.835 372.2194)" class="st9 st10">Cluster 2</text>
				<rect x="388.4" y="510.4" class="st0" width="136.6" height="40.4"/>
				<text transform="matrix(1 0 0 1 388.3848 539.6989)" class="st8 st9 st10">Cluster 3</text>
				<rect x="195" y="510.4" class="st0" width="136.6" height="40.4"/>
				<text transform="matrix(1 0 0 1 195.0049 539.6989)" class="st8 st9 st10">Cluster 4</text>
				<rect x="98.3" y="342.9" class="st0" width="136.6" height="40.4"/>
				<text transform="matrix(1 0 0 1 98.3052 372.2194)" class="st8 st9 st10">Cluster 5</text>
				<rect x="195" y="175.4" class="st0" width="136.6" height="40.4"/>
				<text transform="matrix(1 0 0 1 195.0049 204.7394)" class="st8 st9 st10">Cluster 6</text>
			</g>
		</g>
	</g>
</g>
</svg>
