<?xml version="1.0" encoding="utf-8"?>
<!-- Generator: Adobe Illustrator 26.0.3, SVG Export Plug-In . SVG Version: 6.00 Build 0)  -->
<svg version="1.1" id="Calque_1" xmlns="http://www.w3.org/2000/svg" xmlns:xlink="http://www.w3.org/1999/xlink" x="0px" y="0px"
	 viewBox="0 0 720 720" style="enable-background:new 0 0 720 720;" xml:space="preserve">
<style type="text/css">
	.st0{fill:none;}
	.st1{clip-path:url(#SVGID_00000017483475518673383800000016836852756631781531_);}
	
		.st2{opacity:0.3;fill:#440154;fill-opacity:0.8;stroke:#FFFFFF;stroke-width:1.07;stroke-linecap:round;stroke-linejoin:round;stroke-miterlimit:10;enable-background:new    ;}
	
		.st3{opacity:0.3;fill:#414487;fill-opacity:0.8;stroke:#FFFFFF;stroke-width:1.07;stroke-linecap:round;stroke-linejoin:round;stroke-miterlimit:10;enable-background:new    ;}
	
		.st4{opacity:0.3;fill:#2A788E;fill-opacity:0.8;stroke:#FFFFFF;stroke-width:1.07;stroke-linecap:round;stroke-linejoin:round;stroke-miterlimit:10;enable-background:new    ;}
	
		.st5{opacity:0.3;fill:#22A884;fill-opacity:0.8;stroke:#FFFFFF;stroke-width:1.07;stroke-linecap:round;stroke-linejoin:round;stroke-miterlimit:10;enable-background:new    ;}
	
		.st6{opacity:0.3;fill:#7AD151;fill-opacity:0.8;stroke:#FFFFFF;stroke-width:1.07;stroke-linecap:round;stroke-linejoin:round;stroke-miterlimit:10;enable-background:new    ;}
	
		.st7{opacity:0.8;fill:#FDE725;fill-opacity:0.8;stroke:#FFFFFF;stroke-width:1.07;stroke-linecap:round;stroke-linejoin:round;stroke-miterlimit:10;}
	.st8{opacity:0.3;enable-background:new    ;}
	.st9{font-family:'ArialMT';}
	.st10{font-size:34.14px;}
</style>
<rect y="0" class="st0" width="720" height="720"/>
<g>
	<g>
		<g>
			<g>
				<defs>
					<rect id="SVGID_1_" y="0" width="720" height="720"/>
				</defs>
				<clipPath id="SVGID_00000089560816596651570480000003217294132743117203_">
					<use xlink:href="#SVGID_1_"  style="overflow:visible;"/>
				</clipPath>
				<g style="clip-path:url(#SVGID_00000089560816596651570480000003217294132743117203_);">
					<polygon class="st2" points="360,62.5 365.3,62.5 370.6,62.7 375.8,62.9 381.1,63.2 386.4,63.6 391.6,64.2 396.9,64.8 
						402.1,65.5 407.3,66.3 412.5,67.1 417.7,68.1 422.9,69.2 428,70.4 433.2,71.6 438.3,73 443.4,74.4 448.4,75.9 453.4,77.5 
						458.4,79.2 463.4,81 468.4,82.9 473.2,84.9 478.1,86.9 482.9,89.1 487.7,91.3 492.5,93.6 497.2,96 501.9,98.5 506.5,101 
						511,103.7 515.6,106.4 520,109.2 524.5,112.1 528.8,115 533.2,118.1 537.4,121.2 541.6,124.4 545.8,127.6 549.9,131 
						553.9,134.4 557.9,137.8 561.8,141.4 565.7,145 569.4,148.7 573.2,152.4 576.8,156.3 580.4,160.1 583.9,164.1 587.3,168.1 
						590.7,172.1 594,176.3 597.2,180.5 600.4,184.7 603.5,189 606.5,193.3 609.4,197.7 612.2,202.2 615,206.7 617.7,211.2 
						437.3,315.4 436.5,314 435.7,312.7 434.8,311.3 433.9,310 433,308.7 432.1,307.4 431.2,306.1 430.2,304.9 429.2,303.6 
						428.2,302.4 427.2,301.2 426.1,300 425,298.9 424,297.7 422.8,296.6 421.7,295.5 420.5,294.4 419.4,293.3 418.2,292.3 
						417,291.3 415.7,290.3 414.5,289.3 413.2,288.3 412,287.4 410.6,286.5 409.3,285.6 408,284.8 406.7,283.9 405.3,283.1 
						403.9,282.3 402.5,281.5 401.2,280.8 399.7,280.1 398.3,279.4 396.9,278.7 395.4,278.1 394,277.5 392.5,276.9 391,276.3 
						389.5,275.8 388,275.3 386.5,274.8 385,274.3 383.5,273.9 382,273.5 380.4,273.1 378.9,272.8 377.3,272.4 375.8,272.1 
						374.2,271.9 372.6,271.6 371.1,271.4 369.5,271.2 367.9,271.1 366.3,271 364.8,270.9 363.2,270.8 361.6,270.8 360,270.7 					
						"/>
					<polygon class="st3" points="617.7,211.2 620.3,215.8 622.8,220.5 625.2,225.2 627.6,229.9 629.8,234.7 632,239.5 634.1,244.3 
						636.1,249.2 638,254.1 639.9,259.1 641.6,264 643.3,269.1 644.8,274.1 646.3,279.2 647.7,284.3 649,289.4 650.2,294.5 
						651.3,299.7 652.4,304.9 653.3,310.1 654.1,315.3 654.9,320.5 655.5,325.7 656.1,331 656.6,336.3 657,341.5 657.2,346.8 
						657.4,352.1 657.5,357.4 657.5,362.6 657.4,367.9 657.2,373.2 657,378.5 656.6,383.7 656.1,389 655.5,394.2 654.9,399.5 
						654.1,404.7 653.3,409.9 652.4,415.1 651.3,420.3 650.2,425.5 649,430.6 647.7,435.7 646.3,440.8 644.8,445.9 643.3,450.9 
						641.6,455.9 639.9,460.9 638,465.9 636.1,470.8 634.1,475.7 632,480.5 629.8,485.3 627.6,490.1 625.2,494.8 622.8,499.5 
						620.3,504.2 617.7,508.8 437.3,404.6 438.1,403.2 438.8,401.9 439.6,400.4 440.3,399 441,397.6 441.6,396.2 442.2,394.7 
						442.8,393.2 443.4,391.8 444,390.3 444.5,388.8 445,387.3 445.5,385.8 445.9,384.2 446.3,382.7 446.7,381.2 447.1,379.6 
						447.4,378.1 447.7,376.5 448,375 448.2,373.4 448.5,371.8 448.7,370.3 448.8,368.7 449,367.1 449.1,365.5 449.2,364 
						449.2,362.4 449.2,360.8 449.2,359.2 449.2,357.6 449.2,356 449.1,354.5 449,352.9 448.8,351.3 448.7,349.7 448.5,348.1 
						448.2,346.6 448,345 447.7,343.5 447.4,341.9 447.1,340.4 446.7,338.8 446.3,337.3 445.9,335.7 445.5,334.2 445,332.7 
						444.5,331.2 444,329.7 443.4,328.2 442.8,326.8 442.2,325.3 441.6,323.8 441,322.4 440.3,321 439.6,319.5 438.8,318.1 
						438.1,316.7 437.3,315.4 					"/>
					<polygon class="st4" points="617.7,508.8 615,513.2 612.3,517.7 609.5,522 606.7,526.4 603.7,530.6 600.7,534.9 597.6,539 
						594.5,543.2 591.2,547.2 587.9,551.2 584.5,555.2 581.1,559.1 577.6,562.9 574,566.7 570.4,570.4 566.7,574 562.9,577.6 
						559.1,581.1 555.2,584.5 551.2,587.9 547.2,591.2 543.2,594.4 539,597.6 534.9,600.7 530.7,603.7 526.4,606.7 522,609.5 
						517.7,612.3 513.2,615 508.8,617.7 504.2,620.2 499.7,622.7 495.1,625.1 490.4,627.4 485.7,629.6 481,631.8 476.2,633.9 
						471.5,635.9 466.6,637.8 461.8,639.6 456.9,641.3 451.9,643 447,644.5 442,646 437,647.4 432,648.7 426.9,649.9 421.9,651 
						416.8,652 411.7,653 406.5,653.9 401.4,654.6 396.3,655.3 391.1,655.9 385.9,656.4 380.8,656.8 375.6,657.1 370.4,657.3 
						365.2,657.5 360,657.5 360,449.3 361.6,449.2 363.1,449.2 364.7,449.1 366.2,449 367.8,448.9 369.3,448.8 370.9,448.6 
						372.4,448.4 374,448.2 375.5,447.9 377,447.6 378.6,447.3 380.1,447 381.6,446.6 383.1,446.2 384.6,445.8 386.1,445.4 
						387.6,444.9 389.1,444.4 390.5,443.9 392,443.3 393.4,442.8 394.9,442.2 396.3,441.5 397.7,440.9 399.1,440.2 400.5,439.5 
						401.9,438.8 403.3,438.1 404.6,437.3 406,436.5 407.3,435.7 408.6,434.9 409.9,434 411.2,433.1 412.5,432.2 413.7,431.3 
						415,430.3 416.2,429.4 417.4,428.4 418.6,427.4 419.7,426.3 420.9,425.3 422,424.2 423.1,423.1 424.2,422 425.3,420.9 
						426.3,419.7 427.4,418.6 428.4,417.4 429.4,416.2 430.3,414.9 431.3,413.7 432.2,412.5 433.1,411.2 434,409.9 434.9,408.6 
						435.7,407.3 436.5,406 437.3,404.6 					"/>
					<polygon class="st5" points="360,657.5 354.7,657.5 349.4,657.3 344.2,657.1 338.9,656.8 333.6,656.3 328.4,655.8 323.1,655.2 
						317.9,654.5 312.7,653.7 307.5,652.8 302.3,651.9 297.1,650.8 292,649.6 286.8,648.4 281.7,647 276.6,645.6 271.6,644.1 
						266.6,642.5 261.6,640.8 256.6,639 251.6,637.1 246.8,635.1 241.9,633.1 237.1,630.9 232.3,628.7 227.5,626.4 222.8,624 
						218.1,621.5 213.5,619 209,616.3 204.4,613.6 200,610.8 195.5,607.9 191.2,605 186.8,601.9 182.6,598.8 178.4,595.6 
						174.2,592.4 170.1,589 166.1,585.6 162.1,582.2 158.2,578.6 154.3,575 150.6,571.3 146.8,567.6 143.2,563.7 139.6,559.9 
						136.1,555.9 132.6,551.9 129.3,547.8 126,543.7 122.8,539.5 119.6,535.3 116.5,531 113.5,526.7 110.6,522.3 107.8,517.8 
						105,513.3 102.3,508.8 282.7,404.6 283.5,406 284.3,407.3 285.2,408.7 286.1,410 287,411.3 287.9,412.6 288.8,413.9 
						289.8,415.1 290.8,416.4 291.8,417.6 292.8,418.8 293.9,420 295,421.1 296,422.3 297.2,423.4 298.3,424.5 299.5,425.6 
						300.6,426.6 301.8,427.7 303,428.7 304.3,429.7 305.5,430.7 306.8,431.6 308,432.6 309.4,433.5 310.7,434.4 312,435.2 
						313.3,436.1 314.7,436.9 316.1,437.7 317.5,438.5 318.8,439.2 320.3,439.9 321.7,440.6 323.1,441.3 324.6,441.9 326,442.5 
						327.5,443.1 329,443.7 330.5,444.2 332,444.7 333.5,445.2 335,445.7 336.5,446.1 338,446.5 339.6,446.9 341.1,447.2 
						342.7,447.6 344.2,447.8 345.8,448.1 347.4,448.4 348.9,448.6 350.5,448.7 352.1,448.9 353.7,449 355.2,449.1 356.8,449.2 
						358.4,449.2 360,449.3 					"/>
					<polygon class="st6" points="102.3,508.8 99.8,504.2 97.3,499.7 94.9,495.1 92.6,490.4 90.3,485.7 88.2,481 86.1,476.2 
						84.1,471.4 82.2,466.6 80.4,461.8 78.7,456.9 77,451.9 75.5,447 74,442 72.6,437 71.3,432 70.1,426.9 69,421.9 67.9,416.8 
						67,411.7 66.1,406.5 65.4,401.4 64.7,396.3 64.1,391.1 63.6,385.9 63.2,380.7 62.9,375.6 62.7,370.4 62.5,365.2 62.5,360 
						62.5,354.8 62.7,349.6 62.9,344.4 63.2,339.2 63.6,334.1 64.1,328.9 64.7,323.7 65.4,318.6 66.1,313.5 67,308.3 67.9,303.2 
						69,298.1 70.1,293.1 71.3,288 72.6,283 74,278 75.5,273 77,268.1 78.7,263.1 80.4,258.2 82.2,253.4 84.1,248.5 86.1,243.7 
						88.2,239 90.3,234.3 92.6,229.6 94.9,224.9 97.3,220.3 99.8,215.8 102.3,211.2 282.7,315.4 281.9,316.7 281.2,318.1 
						280.5,319.5 279.8,320.9 279.1,322.3 278.5,323.7 277.8,325.1 277.2,326.6 276.7,328 276.1,329.5 275.6,330.9 275.1,332.4 
						274.6,333.9 274.2,335.4 273.8,336.9 273.4,338.4 273,339.9 272.7,341.4 272.4,343 272.1,344.5 271.8,346 271.6,347.6 
						271.4,349.1 271.2,350.7 271.1,352.2 271,353.8 270.9,355.3 270.8,356.9 270.8,358.4 270.7,360 270.8,361.6 270.8,363.1 
						270.9,364.7 271,366.2 271.1,367.8 271.2,369.3 271.4,370.9 271.6,372.4 271.8,374 272.1,375.5 272.4,377 272.7,378.6 
						273,380.1 273.4,381.6 273.8,383.1 274.2,384.6 274.6,386.1 275.1,387.6 275.6,389.1 276.1,390.5 276.7,392 277.2,393.4 
						277.8,394.9 278.5,396.3 279.1,397.7 279.8,399.1 280.5,400.5 281.2,401.9 281.9,403.3 282.7,404.6 					"/>
					<polygon class="st7" points="87.5,185.5 90.1,180.9 92.9,176.4 95.8,172 98.7,167.6 101.7,163.2 104.7,158.9 107.9,154.7 
						111.1,150.5 114.4,146.4 117.8,142.3 121.2,138.3 124.7,134.4 128.3,130.5 132,126.7 135.7,122.9 139.5,119.2 143.3,115.6 
						147.2,112.1 151.2,108.6 155.2,105.2 159.3,101.9 163.5,98.6 167.7,95.4 172,92.3 176.3,89.3 180.6,86.3 185.1,83.4 
						189.6,80.6 194.1,77.9 198.7,75.3 203.3,72.7 207.9,70.2 212.6,67.8 217.4,65.5 222.2,63.3 227,61.2 231.9,59.1 236.8,57.1 
						241.7,55.3 246.7,53.5 251.7,51.8 256.7,50.1 261.8,48.6 266.9,47.2 272,45.8 277.1,44.6 282.2,43.4 287.4,42.4 292.6,41.4 
						297.8,40.5 303,39.7 308.2,39 313.5,38.4 318.8,37.9 324,37.5 329.3,37.1 334.6,36.9 339.8,36.8 345.1,36.7 345.1,245 
						343.5,245 342,245 340.4,245.1 338.8,245.2 337.2,245.3 335.6,245.5 334.1,245.7 332.5,245.9 330.9,246.1 329.4,246.4 
						327.8,246.7 326.3,247 324.7,247.3 323.2,247.7 321.6,248.1 320.1,248.5 318.6,249 317.1,249.5 315.6,250 314.1,250.5 
						312.6,251.1 311.1,251.7 309.7,252.3 308.2,252.9 306.8,253.6 305.4,254.3 304,255 302.6,255.8 301.2,256.5 299.8,257.3 
						298.5,258.1 297.1,259 295.8,259.9 294.5,260.7 293.2,261.6 291.9,262.6 290.6,263.5 289.4,264.5 288.2,265.5 287,266.5 
						285.8,267.6 284.6,268.6 283.4,269.7 282.3,270.8 281.2,272 280.1,273.1 279,274.3 278,275.5 276.9,276.7 275.9,277.9 
						274.9,279.1 274,280.4 273,281.6 272.1,282.9 271.2,284.2 270.3,285.6 269.5,286.9 268.6,288.2 267.8,289.6 					"/>
					<rect x="388.4" y="175.4" class="st0" width="136.6" height="40.4"/>
					<text transform="matrix(1 0 0 1 388.3848 204.7394)" class="st8 st9 st10">Cluster 1</text>
					<rect x="485.1" y="342.9" class="st0" width="136.6" height="40.4"/>
					<text transform="matrix(1 0 0 1 485.085 372.2194)" class="st8 st9 st10">Cluster 2</text>
					<rect x="388.4" y="510.4" class="st0" width="136.6" height="40.4"/>
					<text transform="matrix(1 0 0 1 388.3848 539.6989)" class="st8 st9 st10">Cluster 3</text>
					<rect x="195" y="510.4" class="st0" width="136.6" height="40.4"/>
					<text transform="matrix(1 0 0 1 195.0049 539.6989)" class="st8 st9 st10">Cluster 4</text>
					<rect x="98.3" y="342.9" class="st0" width="136.6" height="40.4"/>
					<text transform="matrix(1 0 0 1 98.3052 372.2194)" class="st8 st9 st10">Cluster 5</text>
					<rect x="180.1" y="149.7" class="st0" width="136.6" height="40.4"/>
					<text transform="matrix(1 0 0 1 180.125 178.9794)" class="st9 st10">Cluster 6</text>
				</g>
			</g>
		</g>
	</g>
</g>
</svg>
