<?xml version="1.0" encoding="utf-8"?>
<!-- Generator: Adobe Illustrator 26.0.3, SVG Export Plug-In . SVG Version: 6.00 Build 0)  -->
<svg version="1.1" id="Calque_1" xmlns="http://www.w3.org/2000/svg" xmlns:xlink="http://www.w3.org/1999/xlink" x="0px" y="0px"
	 viewBox="0 0 720 720" style="enable-background:new 0 0 720 720;" xml:space="preserve">
<style type="text/css">
	.st0{fill:none;}
	.st1{clip-path:url(#SVGID_00000052093195159117528740000005485257263284170374_);}
	
		.st2{opacity:0.3;fill:#440154;fill-opacity:0.8;stroke:#FFFFFF;stroke-width:1.07;stroke-linecap:round;stroke-linejoin:round;stroke-miterlimit:10;enable-background:new    ;}
	
		.st3{opacity:0.3;fill:#414487;fill-opacity:0.8;stroke:#FFFFFF;stroke-width:1.07;stroke-linecap:round;stroke-linejoin:round;stroke-miterlimit:10;enable-background:new    ;}
	
		.st4{opacity:0.8;fill:#2A788E;fill-opacity:0.8;stroke:#FFFFFF;stroke-width:1.07;stroke-linecap:round;stroke-linejoin:round;stroke-miterlimit:10;}
	
		.st5{opacity:0.3;fill:#22A884;fill-opacity:0.8;stroke:#FFFFFF;stroke-width:1.07;stroke-linecap:round;stroke-linejoin:round;stroke-miterlimit:10;enable-background:new    ;}
	
		.st6{opacity:0.3;fill:#7AD151;fill-opacity:0.8;stroke:#FFFFFF;stroke-width:1.07;stroke-linecap:round;stroke-linejoin:round;stroke-miterlimit:10;enable-background:new    ;}
	
		.st7{opacity:0.3;fill:#FDE725;fill-opacity:0.8;stroke:#FFFFFF;stroke-width:1.07;stroke-linecap:round;stroke-linejoin:round;stroke-miterlimit:10;enable-background:new    ;}
	.st8{opacity:0.3;enable-background:new    ;}
	.st9{font-family:'ArialMT';}
	.st10{font-size:34.14px;}
</style>
<rect y="0" class="st0" width="720" height="720"/>
<g>
	<g>
		<g>
			<g>
				<defs>
					<rect id="SVGID_1_" y="0" width="720" height="720"/>
				</defs>
				<clipPath id="SVGID_00000138571509871511100440000015836150326299454116_">
					<use xlink:href="#SVGID_1_"  style="overflow:visible;"/>
				</clipPath>
				<g style="clip-path:url(#SVGID_00000138571509871511100440000015836150326299454116_);">
					<polygon class="st2" points="360,62.5 365.3,62.5 370.6,62.7 375.8,62.9 381.1,63.2 386.4,63.6 391.6,64.2 396.9,64.8 
						402.1,65.5 407.3,66.3 412.5,67.1 417.7,68.1 422.9,69.2 428,70.4 433.2,71.6 438.3,73 443.4,74.4 448.4,75.9 453.4,77.5 
						458.4,79.2 463.4,81 468.4,82.9 473.2,84.9 478.1,86.9 482.9,89.1 487.7,91.3 492.5,93.6 497.2,96 501.9,98.5 506.5,101 
						511,103.7 515.6,106.4 520,109.2 524.5,112.1 528.8,115 533.2,118.1 537.4,121.2 541.6,124.4 545.8,127.6 549.9,131 
						553.9,134.4 557.9,137.8 561.8,141.4 565.7,145 569.4,148.7 573.2,152.4 576.8,156.3 580.4,160.1 583.9,164.1 587.3,168.1 
						590.7,172.1 594,176.3 597.2,180.5 600.4,184.7 603.5,189 606.5,193.3 609.4,197.7 612.2,202.2 615,206.7 617.7,211.2 
						437.3,315.4 436.5,314 435.7,312.7 434.8,311.3 433.9,310 433,308.7 432.1,307.4 431.2,306.1 430.2,304.9 429.2,303.6 
						428.2,302.4 427.2,301.2 426.1,300 425,298.9 424,297.7 422.8,296.6 421.7,295.5 420.5,294.4 419.4,293.3 418.2,292.3 
						417,291.3 415.7,290.3 414.5,289.3 413.2,288.3 412,287.4 410.6,286.5 409.3,285.6 408,284.8 406.7,283.9 405.3,283.1 
						403.9,282.3 402.5,281.5 401.2,280.8 399.7,280.1 398.3,279.4 396.9,278.7 395.4,278.1 394,277.5 392.5,276.9 391,276.3 
						389.5,275.8 388,275.3 386.5,274.8 385,274.3 383.5,273.9 382,273.5 380.4,273.1 378.9,272.8 377.3,272.4 375.8,272.1 
						374.2,271.9 372.6,271.6 371.1,271.4 369.5,271.2 367.9,271.1 366.3,271 364.8,270.9 363.2,270.8 361.6,270.8 360,270.7 					
						"/>
					<polygon class="st3" points="617.7,211.2 620.3,215.8 622.8,220.5 625.2,225.2 627.6,229.9 629.8,234.7 632,239.5 634.1,244.3 
						636.1,249.2 638,254.1 639.9,259.1 641.6,264 643.3,269.1 644.8,274.1 646.3,279.2 647.7,284.3 649,289.4 650.2,294.5 
						651.3,299.7 652.4,304.9 653.3,310.1 654.1,315.3 654.9,320.5 655.5,325.7 656.1,331 656.6,336.3 657,341.5 657.2,346.8 
						657.4,352.1 657.5,357.4 657.5,362.6 657.4,367.9 657.2,373.2 657,378.5 656.6,383.7 656.1,389 655.5,394.2 654.9,399.5 
						654.1,404.7 653.3,409.9 652.4,415.1 651.3,420.3 650.2,425.5 649,430.6 647.7,435.7 646.3,440.8 644.8,445.9 643.3,450.9 
						641.6,455.9 639.9,460.9 638,465.9 636.1,470.8 634.1,475.7 632,480.5 629.8,485.3 627.6,490.1 625.2,494.8 622.8,499.5 
						620.3,504.2 617.7,508.8 437.3,404.6 438.1,403.2 438.8,401.9 439.6,400.4 440.3,399 441,397.6 441.6,396.2 442.2,394.7 
						442.8,393.2 443.4,391.8 444,390.3 444.5,388.8 445,387.3 445.5,385.8 445.9,384.2 446.3,382.7 446.7,381.2 447.1,379.6 
						447.4,378.1 447.7,376.5 448,375 448.2,373.4 448.5,371.8 448.7,370.3 448.8,368.7 449,367.1 449.1,365.5 449.2,364 
						449.2,362.4 449.2,360.8 449.2,359.2 449.2,357.6 449.2,356 449.1,354.5 449,352.9 448.8,351.3 448.7,349.7 448.5,348.1 
						448.2,346.6 448,345 447.7,343.5 447.4,341.9 447.1,340.4 446.7,338.8 446.3,337.3 445.9,335.7 445.5,334.2 445,332.7 
						444.5,331.2 444,329.7 443.4,328.2 442.8,326.8 442.2,325.3 441.6,323.8 441,322.4 440.3,321 439.6,319.5 438.8,318.1 
						438.1,316.7 437.3,315.4 					"/>
					<polygon class="st4" points="632.5,534.5 629.9,539 627.2,543.4 624.4,547.8 621.5,552.1 618.6,556.4 615.6,560.6 612.5,564.8 
						609.3,568.9 606.1,573 602.8,577 599.4,581 596,584.8 592.5,588.7 588.9,592.4 585.2,596.1 581.5,599.8 577.8,603.4 574,606.9 
						570.1,610.3 566.1,613.7 562.1,617 558,620.2 553.9,623.4 549.8,626.5 545.5,629.5 541.2,632.4 536.9,635.3 532.5,638.1 
						528.1,640.8 523.6,643.4 519.1,646 514.5,648.5 510,650.9 505.3,653.2 500.6,655.4 495.9,657.6 491.1,659.6 486.3,661.6 
						481.5,663.5 476.6,665.3 471.7,667.1 466.8,668.7 461.9,670.3 456.9,671.8 451.9,673.1 446.9,674.4 441.8,675.7 436.7,676.8 
						431.6,677.8 426.5,678.8 421.4,679.6 416.3,680.4 411.1,681.1 406,681.7 400.8,682.1 395.6,682.6 390.5,682.9 385.3,683.1 
						380.1,683.2 374.9,683.3 374.9,475 376.4,475 378,475 379.5,474.9 381.1,474.8 382.7,474.7 384.2,474.5 385.8,474.4 
						387.3,474.1 388.8,473.9 390.4,473.7 391.9,473.4 393.4,473.1 395,472.7 396.5,472.4 398,472 399.5,471.6 401,471.1 
						402.5,470.6 403.9,470.2 405.4,469.6 406.9,469.1 408.3,468.5 409.8,467.9 411.2,467.3 412.6,466.7 414,466 415.4,465.3 
						416.8,464.6 418.1,463.8 419.5,463.1 420.9,462.3 422.2,461.5 423.5,460.6 424.8,459.8 426.1,458.9 427.3,458 428.6,457 
						429.8,456.1 431,455.1 432.2,454.1 433.4,453.1 434.6,452.1 435.8,451 436.9,450 438,448.9 439.1,447.8 440.1,446.6 
						441.2,445.5 442.2,444.3 443.2,443.1 444.2,441.9 445.2,440.7 446.2,439.5 447.1,438.2 448,437 448.9,435.7 449.7,434.4 
						450.6,433.1 451.4,431.7 452.2,430.4 					"/>
					<polygon class="st5" points="360,657.5 354.7,657.5 349.4,657.3 344.2,657.1 338.9,656.8 333.6,656.3 328.4,655.8 323.1,655.2 
						317.9,654.5 312.7,653.7 307.5,652.8 302.3,651.9 297.1,650.8 292,649.6 286.8,648.4 281.7,647 276.6,645.6 271.6,644.1 
						266.6,642.5 261.6,640.8 256.6,639 251.6,637.1 246.8,635.1 241.9,633.1 237.1,630.9 232.3,628.7 227.5,626.4 222.8,624 
						218.1,621.5 213.5,619 209,616.3 204.4,613.6 200,610.8 195.5,607.9 191.2,605 186.8,601.9 182.6,598.8 178.4,595.6 
						174.2,592.4 170.1,589 166.1,585.6 162.1,582.2 158.2,578.6 154.3,575 150.6,571.3 146.8,567.6 143.2,563.7 139.6,559.9 
						136.1,555.9 132.6,551.9 129.3,547.8 126,543.7 122.8,539.5 119.6,535.3 116.5,531 113.5,526.7 110.6,522.3 107.8,517.8 
						105,513.3 102.3,508.8 282.7,404.6 283.5,406 284.3,407.3 285.2,408.7 286.1,410 287,411.3 287.9,412.6 288.8,413.9 
						289.8,415.1 290.8,416.4 291.8,417.6 292.8,418.8 293.9,420 295,421.1 296,422.3 297.2,423.4 298.3,424.5 299.5,425.6 
						300.6,426.6 301.8,427.7 303,428.7 304.3,429.7 305.5,430.7 306.8,431.6 308,432.6 309.4,433.5 310.7,434.4 312,435.2 
						313.3,436.1 314.7,436.9 316.1,437.7 317.5,438.5 318.8,439.2 320.3,439.9 321.7,440.6 323.1,441.3 324.6,441.9 326,442.5 
						327.5,443.1 329,443.7 330.5,444.2 332,444.7 333.5,445.2 335,445.7 336.5,446.1 338,446.5 339.6,446.9 341.1,447.2 
						342.7,447.6 344.2,447.8 345.8,448.1 347.4,448.4 348.9,448.6 350.5,448.7 352.1,448.9 353.7,449 355.2,449.1 356.8,449.2 
						358.4,449.2 360,449.3 					"/>
					<polygon class="st6" points="102.3,508.8 99.8,504.2 97.3,499.7 94.9,495.1 92.6,490.4 90.3,485.7 88.2,481 86.1,476.2 
						84.1,471.4 82.2,466.6 80.4,461.8 78.7,456.9 77,451.9 75.5,447 74,442 72.6,437 71.3,432 70.1,426.9 69,421.9 67.9,416.8 
						67,411.7 66.1,406.5 65.4,401.4 64.7,396.3 64.1,391.1 63.6,385.9 63.2,380.7 62.9,375.6 62.7,370.4 62.5,365.2 62.5,360 
						62.5,354.8 62.7,349.6 62.9,344.4 63.2,339.2 63.6,334.1 64.1,328.9 64.7,323.7 65.4,318.6 66.1,313.5 67,308.3 67.9,303.2 
						69,298.1 70.1,293.1 71.3,288 72.6,283 74,278 75.5,273 77,268.1 78.7,263.1 80.4,258.2 82.2,253.4 84.1,248.5 86.1,243.7 
						88.2,239 90.3,234.3 92.6,229.6 94.9,224.9 97.3,220.3 99.8,215.8 102.3,211.2 282.7,315.4 281.9,316.7 281.2,318.1 
						280.5,319.5 279.8,320.9 279.1,322.3 278.5,323.7 277.8,325.1 277.2,326.6 276.7,328 276.1,329.5 275.6,330.9 275.1,332.4 
						274.6,333.9 274.2,335.4 273.8,336.9 273.4,338.4 273,339.9 272.7,341.4 272.4,343 272.1,344.5 271.8,346 271.6,347.6 
						271.4,349.1 271.2,350.7 271.1,352.2 271,353.8 270.9,355.3 270.8,356.9 270.8,358.4 270.7,360 270.8,361.6 270.8,363.1 
						270.9,364.7 271,366.2 271.1,367.8 271.2,369.3 271.4,370.9 271.6,372.4 271.8,374 272.1,375.5 272.4,377 272.7,378.6 
						273,380.1 273.4,381.6 273.8,383.1 274.2,384.6 274.6,386.1 275.1,387.6 275.6,389.1 276.1,390.5 276.7,392 277.2,393.4 
						277.8,394.9 278.5,396.3 279.1,397.7 279.8,399.1 280.5,400.5 281.2,401.9 281.9,403.3 282.7,404.6 					"/>
					<polygon class="st7" points="102.3,211.2 105,206.7 107.8,202.2 110.6,197.7 113.5,193.3 116.5,189 119.6,184.7 122.8,180.5 
						126,176.3 129.3,172.1 132.6,168.1 136.1,164.1 139.6,160.1 143.2,156.3 146.8,152.4 150.6,148.7 154.3,145 158.2,141.4 
						162.1,137.8 166.1,134.4 170.1,131 174.2,127.6 178.4,124.4 182.6,121.2 186.8,118.1 191.2,115 195.5,112.1 200,109.2 
						204.4,106.4 209,103.7 213.5,101 218.1,98.5 222.8,96 227.5,93.6 232.3,91.3 237.1,89.1 241.9,86.9 246.8,84.9 251.6,82.9 
						256.6,81 261.6,79.2 266.6,77.5 271.6,75.9 276.6,74.4 281.7,73 286.8,71.6 292,70.4 297.1,69.2 302.3,68.1 307.5,67.1 
						312.7,66.3 317.9,65.5 323.1,64.8 328.4,64.2 333.6,63.6 338.9,63.2 344.2,62.9 349.4,62.7 354.7,62.5 360,62.5 360,270.7 
						358.4,270.8 356.8,270.8 355.2,270.9 353.7,271 352.1,271.1 350.5,271.2 348.9,271.4 347.4,271.6 345.8,271.9 344.2,272.1 
						342.7,272.4 341.1,272.8 339.6,273.1 338,273.5 336.5,273.9 335,274.3 333.5,274.8 332,275.3 330.5,275.8 329,276.3 
						327.5,276.9 326,277.5 324.6,278.1 323.1,278.7 321.7,279.4 320.3,280.1 318.8,280.8 317.5,281.5 316.1,282.3 314.7,283.1 
						313.3,283.9 312,284.8 310.7,285.6 309.4,286.5 308,287.4 306.8,288.3 305.5,289.3 304.3,290.3 303,291.3 301.8,292.3 
						300.6,293.3 299.5,294.4 298.3,295.5 297.2,296.6 296,297.7 295,298.9 293.9,300 292.8,301.2 291.8,302.4 290.8,303.6 
						289.8,304.9 288.8,306.1 287.9,307.4 287,308.7 286.1,310 285.2,311.3 284.3,312.7 283.5,314 282.7,315.4 					"/>
					<rect x="388.4" y="175.4" class="st0" width="136.6" height="40.4"/>
					<text transform="matrix(1 0 0 1 388.3848 204.7394)" class="st8 st9 st10">Cluster 1</text>
					<rect x="485.1" y="342.9" class="st0" width="136.6" height="40.4"/>
					<text transform="matrix(1 0 0 1 485.085 372.2194)" class="st8 st9 st10">Cluster 2</text>
					<rect x="403.3" y="536.2" class="st0" width="136.6" height="40.4"/>
					<text transform="matrix(1 0 0 1 403.2651 565.4694)" class="st9 st10">Cluster 3</text>
					<rect x="195" y="510.4" class="st0" width="136.6" height="40.4"/>
					<text transform="matrix(1 0 0 1 195.0049 539.6989)" class="st8 st9 st10">Cluster 4</text>
					<rect x="98.3" y="342.9" class="st0" width="136.6" height="40.4"/>
					<text transform="matrix(1 0 0 1 98.3052 372.2194)" class="st8 st9 st10">Cluster 5</text>
					<rect x="195" y="175.4" class="st0" width="136.6" height="40.4"/>
					<text transform="matrix(1 0 0 1 195.0049 204.7394)" class="st8 st9 st10">Cluster 6</text>
				</g>
			</g>
		</g>
	</g>
</g>
</svg>
