<?xml version="1.0" encoding="utf-8"?>
<!-- Generator: Adobe Illustrator 26.0.3, SVG Export Plug-In . SVG Version: 6.00 Build 0)  -->
<svg version="1.1" id="Calque_1" xmlns="http://www.w3.org/2000/svg" xmlns:xlink="http://www.w3.org/1999/xlink" x="0px" y="0px"
	 viewBox="0 0 720 720" style="enable-background:new 0 0 720 720;" xml:space="preserve">
<style type="text/css">
	.st0{fill:none;}
	.st1{clip-path:url(#SVGID_00000132077386945988822420000016237784915610863798_);}
	
		.st2{opacity:0.3;fill:#440154;fill-opacity:0.8;stroke:#FFFFFF;stroke-width:1.07;stroke-linecap:round;stroke-linejoin:round;stroke-miterlimit:10;enable-background:new    ;}
	
		.st3{opacity:0.3;fill:#414487;fill-opacity:0.8;stroke:#FFFFFF;stroke-width:1.07;stroke-linecap:round;stroke-linejoin:round;stroke-miterlimit:10;enable-background:new    ;}
	
		.st4{opacity:0.3;fill:#2A788E;fill-opacity:0.8;stroke:#FFFFFF;stroke-width:1.07;stroke-linecap:round;stroke-linejoin:round;stroke-miterlimit:10;enable-background:new    ;}
	
		.st5{opacity:0.3;fill:#22A884;fill-opacity:0.8;stroke:#FFFFFF;stroke-width:1.07;stroke-linecap:round;stroke-linejoin:round;stroke-miterlimit:10;enable-background:new    ;}
	
		.st6{opacity:0.8;fill:#7AD151;fill-opacity:0.8;stroke:#FFFFFF;stroke-width:1.07;stroke-linecap:round;stroke-linejoin:round;stroke-miterlimit:10;}
	
		.st7{opacity:0.3;fill:#FDE725;fill-opacity:0.8;stroke:#FFFFFF;stroke-width:1.07;stroke-linecap:round;stroke-linejoin:round;stroke-miterlimit:10;enable-background:new    ;}
	.st8{opacity:0.3;enable-background:new    ;}
	.st9{font-family:'ArialMT';}
	.st10{font-size:34.14px;}
</style>
<rect y="0" class="st0" width="720" height="720"/>
<g>
	<g>
		<g>
			<defs>
				<rect id="SVGID_1_" y="0" width="720" height="720"/>
			</defs>
			<clipPath id="SVGID_00000052104985165192561330000013449739816374585508_">
				<use xlink:href="#SVGID_1_"  style="overflow:visible;"/>
			</clipPath>
			<g style="clip-path:url(#SVGID_00000052104985165192561330000013449739816374585508_);">
				<polygon class="st2" points="360,62.5 365.3,62.5 370.6,62.7 375.8,62.9 381.1,63.2 386.4,63.6 391.6,64.2 396.9,64.8 
					402.1,65.5 407.3,66.3 412.5,67.1 417.7,68.1 422.9,69.2 428,70.4 433.2,71.6 438.3,73 443.4,74.4 448.4,75.9 453.4,77.5 
					458.4,79.2 463.4,81 468.4,82.9 473.2,84.9 478.1,86.9 482.9,89.1 487.7,91.3 492.5,93.6 497.2,96 501.9,98.5 506.5,101 
					511,103.7 515.6,106.4 520,109.2 524.5,112.1 528.8,115 533.2,118.1 537.4,121.2 541.6,124.4 545.8,127.6 549.9,131 
					553.9,134.4 557.9,137.8 561.8,141.4 565.7,145 569.4,148.7 573.2,152.4 576.8,156.3 580.4,160.1 583.9,164.1 587.3,168.1 
					590.7,172.1 594,176.3 597.2,180.5 600.4,184.7 603.5,189 606.5,193.3 609.4,197.7 612.2,202.2 615,206.7 617.7,211.2 
					437.3,315.4 436.5,314 435.7,312.7 434.8,311.3 433.9,310 433,308.7 432.1,307.4 431.2,306.1 430.2,304.9 429.2,303.6 
					428.2,302.4 427.2,301.2 426.1,300 425,298.9 424,297.7 422.8,296.6 421.7,295.5 420.5,294.4 419.4,293.3 418.2,292.3 
					417,291.3 415.7,290.3 414.5,289.3 413.2,288.3 412,287.4 410.6,286.5 409.3,285.6 408,284.8 406.7,283.9 405.3,283.1 
					403.9,282.3 402.5,281.5 401.2,280.8 399.7,280.1 398.3,279.4 396.9,278.7 395.4,278.1 394,277.5 392.5,276.9 391,276.3 
					389.5,275.8 388,275.3 386.5,274.8 385,274.3 383.5,273.9 382,273.5 380.4,273.1 378.9,272.8 377.3,272.4 375.8,272.1 
					374.2,271.9 372.6,271.6 371.1,271.4 369.5,271.2 367.9,271.1 366.3,271 364.8,270.9 363.2,270.8 361.6,270.8 360,270.7 				"/>
				<polygon class="st3" points="617.7,211.2 620.3,215.8 622.8,220.5 625.2,225.2 627.6,229.9 629.8,234.7 632,239.5 634.1,244.3 
					636.1,249.2 638,254.1 639.9,259.1 641.6,264 643.3,269.1 644.8,274.1 646.3,279.2 647.7,284.3 649,289.4 650.2,294.5 
					651.3,299.7 652.4,304.9 653.3,310.1 654.1,315.3 654.9,320.5 655.5,325.7 656.1,331 656.6,336.3 657,341.5 657.2,346.8 
					657.4,352.1 657.5,357.4 657.5,362.6 657.4,367.9 657.2,373.2 657,378.5 656.6,383.7 656.1,389 655.5,394.2 654.9,399.5 
					654.1,404.7 653.3,409.9 652.4,415.1 651.3,420.3 650.2,425.5 649,430.6 647.7,435.7 646.3,440.8 644.8,445.9 643.3,450.9 
					641.6,455.9 639.9,460.9 638,465.9 636.1,470.8 634.1,475.7 632,480.5 629.8,485.3 627.6,490.1 625.2,494.8 622.8,499.5 
					620.3,504.2 617.7,508.8 437.3,404.6 438.1,403.2 438.8,401.9 439.6,400.4 440.3,399 441,397.6 441.6,396.2 442.2,394.7 
					442.8,393.2 443.4,391.8 444,390.3 444.5,388.8 445,387.3 445.5,385.8 445.9,384.2 446.3,382.7 446.7,381.2 447.1,379.6 
					447.4,378.1 447.7,376.5 448,375 448.2,373.4 448.5,371.8 448.7,370.3 448.8,368.7 449,367.1 449.1,365.5 449.2,364 
					449.2,362.4 449.2,360.8 449.2,359.2 449.2,357.6 449.2,356 449.1,354.5 449,352.9 448.8,351.3 448.7,349.7 448.5,348.1 
					448.2,346.6 448,345 447.7,343.5 447.4,341.9 447.1,340.4 446.7,338.8 446.3,337.3 445.9,335.7 445.5,334.2 445,332.7 
					444.5,331.2 444,329.7 443.4,328.2 442.8,326.8 442.2,325.3 441.6,323.8 441,322.4 440.3,321 439.6,319.5 438.8,318.1 
					438.1,316.7 437.3,315.4 				"/>
				<polygon class="st4" points="617.7,508.8 615,513.2 612.3,517.7 609.5,522 606.7,526.4 603.7,530.6 600.7,534.9 597.6,539 
					594.5,543.2 591.2,547.2 587.9,551.2 584.5,555.2 581.1,559.1 577.6,562.9 574,566.7 570.4,570.4 566.7,574 562.9,577.6 
					559.1,581.1 555.2,584.5 551.2,587.9 547.2,591.2 543.2,594.4 539,597.6 534.9,600.7 530.7,603.7 526.4,606.7 522,609.5 
					517.7,612.3 513.2,615 508.8,617.7 504.2,620.2 499.7,622.7 495.1,625.1 490.4,627.4 485.7,629.6 481,631.8 476.2,633.9 
					471.5,635.9 466.6,637.8 461.8,639.6 456.9,641.3 451.9,643 447,644.5 442,646 437,647.4 432,648.7 426.9,649.9 421.9,651 
					416.8,652 411.7,653 406.5,653.9 401.4,654.6 396.3,655.3 391.1,655.9 385.9,656.4 380.8,656.8 375.6,657.1 370.4,657.3 
					365.2,657.5 360,657.5 360,449.3 361.6,449.2 363.1,449.2 364.7,449.1 366.2,449 367.8,448.9 369.3,448.8 370.9,448.6 
					372.4,448.4 374,448.2 375.5,447.9 377,447.6 378.6,447.3 380.1,447 381.6,446.6 383.1,446.2 384.6,445.8 386.1,445.4 
					387.6,444.9 389.1,444.4 390.5,443.9 392,443.3 393.4,442.8 394.9,442.2 396.3,441.5 397.7,440.9 399.1,440.2 400.5,439.5 
					401.9,438.8 403.3,438.1 404.6,437.3 406,436.5 407.3,435.7 408.6,434.9 409.9,434 411.2,433.1 412.5,432.2 413.7,431.3 
					415,430.3 416.2,429.4 417.4,428.4 418.6,427.4 419.7,426.3 420.9,425.3 422,424.2 423.1,423.1 424.2,422 425.3,420.9 
					426.3,419.7 427.4,418.6 428.4,417.4 429.4,416.2 430.3,414.9 431.3,413.7 432.2,412.5 433.1,411.2 434,409.9 434.9,408.6 
					435.7,407.3 436.5,406 437.3,404.6 				"/>
				<polygon class="st5" points="360,657.5 354.7,657.5 349.4,657.3 344.2,657.1 338.9,656.8 333.6,656.3 328.4,655.8 323.1,655.2 
					317.9,654.5 312.7,653.7 307.5,652.8 302.3,651.9 297.1,650.8 292,649.6 286.8,648.4 281.7,647 276.6,645.6 271.6,644.1 
					266.6,642.5 261.6,640.8 256.6,639 251.6,637.1 246.8,635.1 241.9,633.1 237.1,630.9 232.3,628.7 227.5,626.4 222.8,624 
					218.1,621.5 213.5,619 209,616.3 204.4,613.6 200,610.8 195.5,607.9 191.2,605 186.8,601.9 182.6,598.8 178.4,595.6 
					174.2,592.4 170.1,589 166.1,585.6 162.1,582.2 158.2,578.6 154.3,575 150.6,571.3 146.8,567.6 143.2,563.7 139.6,559.9 
					136.1,555.9 132.6,551.9 129.3,547.8 126,543.7 122.8,539.5 119.6,535.3 116.5,531 113.5,526.7 110.6,522.3 107.8,517.8 
					105,513.3 102.3,508.8 282.7,404.6 283.5,406 284.3,407.3 285.2,408.7 286.1,410 287,411.3 287.9,412.6 288.8,413.9 
					289.8,415.1 290.8,416.4 291.8,417.6 292.8,418.8 293.9,420 295,421.1 296,422.3 297.2,423.4 298.3,424.5 299.5,425.6 
					300.6,426.6 301.8,427.7 303,428.7 304.3,429.7 305.5,430.7 306.8,431.6 308,432.6 309.4,433.5 310.7,434.4 312,435.2 
					313.3,436.1 314.7,436.9 316.1,437.7 317.5,438.5 318.8,439.2 320.3,439.9 321.7,440.6 323.1,441.3 324.6,441.9 326,442.5 
					327.5,443.1 329,443.7 330.5,444.2 332,444.7 333.5,445.2 335,445.7 336.5,446.1 338,446.5 339.6,446.9 341.1,447.2 
					342.7,447.6 344.2,447.8 345.8,448.1 347.4,448.4 348.9,448.6 350.5,448.7 352.1,448.9 353.7,449 355.2,449.1 356.8,449.2 
					358.4,449.2 360,449.3 				"/>
				<polygon class="st6" points="72.6,508.8 70,504.2 67.6,499.7 65.2,495.1 62.8,490.4 60.6,485.7 58.5,481 56.4,476.2 54.4,471.4 
					52.5,466.6 50.7,461.8 48.9,456.9 47.3,451.9 45.7,447 44.2,442 42.9,437 41.6,432 40.3,426.9 39.2,421.9 38.2,416.8 
					37.2,411.7 36.4,406.5 35.6,401.4 34.9,396.3 34.4,391.1 33.9,385.9 33.5,380.7 33.1,375.6 32.9,370.4 32.8,365.2 32.7,360 
					32.8,354.8 32.9,349.6 33.1,344.4 33.5,339.2 33.9,334.1 34.4,328.9 34.9,323.7 35.6,318.6 36.4,313.5 37.2,308.3 38.2,303.2 
					39.2,298.1 40.3,293.1 41.6,288 42.9,283 44.2,278 45.7,273 47.3,268.1 48.9,263.1 50.7,258.2 52.5,253.4 54.4,248.5 
					56.4,243.7 58.5,239 60.6,234.3 62.8,229.6 65.2,224.9 67.6,220.3 70,215.8 72.6,211.2 252.9,315.4 252.2,316.7 251.4,318.1 
					250.7,319.5 250,320.9 249.4,322.3 248.7,323.7 248.1,325.1 247.5,326.6 246.9,328 246.4,329.5 245.9,330.9 245.4,332.4 
					244.9,333.9 244.4,335.4 244,336.9 243.6,338.4 243.3,339.9 242.9,341.4 242.6,343 242.4,344.5 242.1,346 241.9,347.6 
					241.7,349.1 241.5,350.7 241.3,352.2 241.2,353.8 241.1,355.3 241.1,356.9 241,358.4 241,360 241,361.6 241.1,363.1 
					241.1,364.7 241.2,366.2 241.3,367.8 241.5,369.3 241.7,370.9 241.9,372.4 242.1,374 242.4,375.5 242.6,377 242.9,378.6 
					243.3,380.1 243.6,381.6 244,383.1 244.4,384.6 244.9,386.1 245.4,387.6 245.9,389.1 246.4,390.5 246.9,392 247.5,393.4 
					248.1,394.9 248.7,396.3 249.4,397.7 250,399.1 250.7,400.5 251.4,401.9 252.2,403.3 252.9,404.6 				"/>
				<polygon class="st7" points="102.3,211.2 105,206.7 107.8,202.2 110.6,197.7 113.5,193.3 116.5,189 119.6,184.7 122.8,180.5 
					126,176.3 129.3,172.1 132.6,168.1 136.1,164.1 139.6,160.1 143.2,156.3 146.8,152.4 150.6,148.7 154.3,145 158.2,141.4 
					162.1,137.8 166.1,134.4 170.1,131 174.2,127.6 178.4,124.4 182.6,121.2 186.8,118.1 191.2,115 195.5,112.1 200,109.2 
					204.4,106.4 209,103.7 213.5,101 218.1,98.5 222.8,96 227.5,93.6 232.3,91.3 237.1,89.1 241.9,86.9 246.8,84.9 251.6,82.9 
					256.6,81 261.6,79.2 266.6,77.5 271.6,75.9 276.6,74.4 281.7,73 286.8,71.6 292,70.4 297.1,69.2 302.3,68.1 307.5,67.1 
					312.7,66.3 317.9,65.5 323.1,64.8 328.4,64.2 333.6,63.6 338.9,63.2 344.2,62.9 349.4,62.7 354.7,62.5 360,62.5 360,270.7 
					358.4,270.8 356.8,270.8 355.2,270.9 353.7,271 352.1,271.1 350.5,271.2 348.9,271.4 347.4,271.6 345.8,271.9 344.2,272.1 
					342.7,272.4 341.1,272.8 339.6,273.1 338,273.5 336.5,273.9 335,274.3 333.5,274.8 332,275.3 330.5,275.8 329,276.3 
					327.5,276.9 326,277.5 324.6,278.1 323.1,278.7 321.7,279.4 320.3,280.1 318.8,280.8 317.5,281.5 316.1,282.3 314.7,283.1 
					313.3,283.9 312,284.8 310.7,285.6 309.4,286.5 308,287.4 306.8,288.3 305.5,289.3 304.3,290.3 303,291.3 301.8,292.3 
					300.6,293.3 299.5,294.4 298.3,295.5 297.2,296.6 296,297.7 295,298.9 293.9,300 292.8,301.2 291.8,302.4 290.8,303.6 
					289.8,304.9 288.8,306.1 287.9,307.4 287,308.7 286.1,310 285.2,311.3 284.3,312.7 283.5,314 282.7,315.4 				"/>
				<rect x="388.4" y="175.4" class="st0" width="136.6" height="40.4"/>
				<text transform="matrix(1 0 0 1 388.3848 204.7394)" class="st8 st9 st10">Cluster 1</text>
				<rect x="485.1" y="342.9" class="st0" width="136.6" height="40.4"/>
				<text transform="matrix(1 0 0 1 485.085 372.2194)" class="st8 st9 st10">Cluster 2</text>
				<rect x="388.4" y="510.4" class="st0" width="136.6" height="40.4"/>
				<text transform="matrix(1 0 0 1 388.3848 539.6989)" class="st8 st9 st10">Cluster 3</text>
				<rect x="195" y="510.4" class="st0" width="136.6" height="40.4"/>
				<text transform="matrix(1 0 0 1 195.0049 539.6989)" class="st8 st9 st10">Cluster 4</text>
				<rect x="68.6" y="342.9" class="st0" width="136.6" height="40.4"/>
				<text transform="matrix(1 0 0 1 68.5552 372.2194)" class="st9 st10">Cluster 5</text>
				<rect x="195" y="175.4" class="st0" width="136.6" height="40.4"/>
				<text transform="matrix(1 0 0 1 195.0049 204.7394)" class="st8 st9 st10">Cluster 6</text>
			</g>
		</g>
	</g>
</g>
</svg>
